HIERARCHY
ROOT hip
{
	OFFSET 0.000000 0.000000 0.000000 
	CHANNELS 6 Xposition Yposition Zposition Xrotation Zrotation Yrotation
	JOINT abdomen
	{
		OFFSET 0.000000 3.402643 0.000000 
		CHANNELS 3 Xrotation Zrotation Yrotation
		JOINT chest
		{
			OFFSET 0.000000 8.438565 -0.680529 
			CHANNELS 3 Xrotation Zrotation Yrotation
			JOINT neck
			{
				OFFSET 0.000000 10.207942 -0.272212 
				CHANNELS 3 Xrotation Zrotation Yrotation
				JOINT head
				{
					OFFSET 0.000000 3.130431 0.000000 
					CHANNELS 3 Xrotation Zrotation Yrotation
					End Site
					{
						OFFSET 0.000000 3.130435 0.000000 
					}
				}
			}
			JOINT lCollar
			{
				OFFSET 3.470700 6.669187 -0.816635 
				CHANNELS 3 Yrotation Zrotation Xrotation
				JOINT lShldr
				{
					OFFSET 3.198488 0.000000 0.000000 
					CHANNELS 3 Zrotation Yrotation Xrotation
					JOINT lForeArm
					{
						OFFSET 10.139888 0.000000 0.000000 
						CHANNELS 3 Yrotation Zrotation Xrotation
						JOINT lHand
						{
							OFFSET 8.370511 0.000000 0.000000 
							CHANNELS 3 Zrotation Yrotation Xrotation
							End Site
							{
								OFFSET 4.083176 0.000000 0.000000 
							}
						}
					}
				}
			}
			JOINT rCollar
			{
				OFFSET -3.470700 6.669187 -0.816635 
				CHANNELS 3 Yrotation Zrotation Xrotation
				JOINT rShldr
				{
					OFFSET -3.198488 0.000000 0.000000 
					CHANNELS 3 Zrotation Yrotation Xrotation
					JOINT rForeArm
					{
						OFFSET -10.139888 0.000000 0.000000 
						CHANNELS 3 Yrotation Zrotation Xrotation
						JOINT rHand
						{
							OFFSET -8.370511 0.000000 0.000000 
							CHANNELS 3 Zrotation Yrotation Xrotation
							End Site
							{
								OFFSET -4.083176 0.000000 0.000000 
							}
						}
					}
				}
			}
		}
	}
	JOINT lThigh
	{
		OFFSET 5.308129 -1.633274 1.361059 
		CHANNELS 3 Xrotation Zrotation Yrotation
		JOINT lShin
		{
			OFFSET -2.041588 -20.007561 0.000000 
			CHANNELS 3 Xrotation Zrotation Yrotation
			JOINT lFoot
			{
				OFFSET 0.000000 -19.190928 -1.224953 
				CHANNELS 3 Xrotation Yrotation Zrotation
				End Site
				{
					OFFSET 0.000000 -2.449906 4.627600 
				}
			}
		}
	}
	JOINT rThigh
	{
		OFFSET -5.308129 -1.633274 1.361059 
		CHANNELS 3 Xrotation Zrotation Yrotation
		JOINT rShin
		{
			OFFSET 2.041588 -20.007561 0.000000 
			CHANNELS 3 Xrotation Zrotation Yrotation
			JOINT rFoot
			{
				OFFSET 0.000000 -19.190928 -1.224953 
				CHANNELS 3 Xrotation Yrotation Zrotation
				End Site
				{
					OFFSET 0.000000 -2.449906 4.627600 
				}
			}
		}
	}
}
MOTION
Frames: 19
Frame Time: 0.033333
-56.442940 52.837406 64.821671 -2.314453 -3.173828 -29.785696 36.214512 -8.535979 -2.225877 -11.162110 12.949220 9.121094 51.553619 8.070152 2.616707 -77.968758 -10.673827 -2.089844 2.000000 -2.000000 0.000000 -53.173824 21.083982 2.982029 -49.387043 -1.729425 -1.694865 -16.559023 62.977112 -10.311549 -2.000000 2.000000 0.000000 50.566406 -30.566404 -9.799886 54.526184 0.914914 -2.153540 7.636522 -44.314907 -14.367250 -17.400402 15.827494 11.463193 48.985001 -4.053486 -4.199815 24.396639 19.622215 -10.796194 5.808026 -2.343116 -25.476376 1.961668 5.873858 0.137189 2.535393 -8.586563 1.212141 
-57.960354 52.963943 66.212280 -2.314453 -2.285156 -29.990623 35.939651 -9.607717 -1.709403 -10.800780 12.919923 9.377184 51.553619 8.070152 2.616707 -77.646484 -10.869140 -2.783203 2.000000 -2.000000 0.000000 -52.744137 22.158203 2.923605 -49.228935 -1.570460 -1.988016 -16.316469 64.663460 -9.304902 -2.000000 2.000000 0.000000 49.873043 -29.228518 -9.355470 54.874241 1.065023 -2.379673 9.369349 -43.258419 -14.473202 -18.392250 14.280041 11.552147 43.695339 -4.257429 -4.367687 22.360481 16.753042 -9.387920 8.231041 -1.982693 -26.138477 0.569685 5.831248 -0.044403 1.664911 -7.816610 0.714027 
-59.426884 52.979755 67.659370 -2.314453 -1.943359 -30.361332 35.704876 -10.611833 -1.345881 -10.625000 12.744141 9.531250 51.553619 8.070152 2.616707 -77.490234 -11.054686 -3.447266 2.000000 -2.000000 0.000000 -53.115231 22.343748 1.185353 -49.748352 -1.739174 -1.694295 -16.203537 65.140244 -8.772995 -2.000000 2.000000 0.000000 50.166016 -27.509768 -9.121095 54.171154 1.026026 -2.381935 12.204105 -42.034515 -14.238020 -17.030624 12.382214 11.089755 34.695305 -4.674482 -3.243491 21.680079 14.606093 -8.865342 11.366484 -1.065217 -26.779118 -2.591646 5.828749 -0.228024 1.604645 -6.990363 0.606211 
-60.469112 52.837406 68.903114 -2.314453 -1.582031 -30.722656 35.441830 -11.468682 -0.873876 -10.458985 12.724610 9.746094 51.553619 8.070152 2.616707 -77.666016 -11.035155 -3.771401 2.000000 -2.000000 0.000000 -53.466801 22.705078 -0.781250 -50.275227 -1.708787 -1.676515 -16.720524 65.268005 -9.334132 -2.000000 2.000000 0.000000 50.097656 -26.435545 -9.101563 54.171406 1.046092 -2.390550 14.302845 -41.421970 -14.335416 -14.257890 10.664153 10.437814 22.718332 -5.371481 -2.627301 22.445744 13.762501 -8.473081 14.075225 -0.577814 -27.102888 -5.049969 5.820444 -0.280663 0.953550 -6.142747 0.694375 
-61.946449 52.750416 70.365753 -2.314453 -1.425781 -31.240232 35.252571 -12.147227 -0.708970 -10.283203 12.714844 9.960937 51.553619 8.070152 2.616707 -78.544922 -10.722655 -3.859239 2.000000 -2.000000 0.000000 -53.535156 22.958984 -2.955174 -50.112144 -1.519508 -1.785376 -16.723101 65.023636 -9.546913 -2.000000 2.000000 0.000000 50.507813 -25.410158 -8.759766 53.644104 1.007095 -2.392812 15.171433 -41.788265 -14.277629 -11.176445 8.627200 9.792601 10.727832 -5.655384 -1.371831 21.744013 12.518745 -7.784030 15.792282 -0.617387 -27.114899 -3.283371 5.809847 -0.259563 -0.981017 -6.302705 0.301724 
-62.983810 52.576454 71.537834 -2.470703 -1.240234 -31.963102 35.249615 -12.754779 -0.707673 -10.097656 12.695313 9.836131 51.553619 8.070152 2.616707 -79.843750 -9.990232 -3.134766 2.000000 -2.000000 0.000000 -53.759766 23.056641 -5.361329 -50.138393 -1.250447 -2.036021 -17.931465 64.022453 -11.260056 -2.000000 2.000000 0.000000 50.410156 -25.458984 -8.402633 53.995628 1.046092 -2.390550 15.642995 -42.939465 -14.990961 -8.270741 7.323330 8.631142 0.300379 -5.592597 -0.276380 19.911169 11.356901 -7.265377 16.490971 -1.182756 -26.471149 -0.649661 5.835015 -0.016392 -3.568634 -6.575477 0.067574 
-63.734505 52.521095 72.621231 -2.470703 -1.074226 -32.656246 35.330795 -13.189748 -1.025813 -9.892579 12.851563 9.755859 51.553619 8.070152 2.616707 -80.634766 -9.365233 -2.558594 2.000000 -2.000000 0.000000 -53.789063 22.470705 -6.646657 -50.120808 -1.380173 -1.744635 -18.230944 63.432552 -12.266565 -2.000000 2.000000 0.000000 50.585934 -25.136721 -7.929688 53.820126 1.036910 -2.400861 15.388455 -43.921566 -15.279900 -6.149988 6.383500 7.739224 -5.333536 -5.574883 0.299766 13.791638 9.677847 -6.337409 16.683399 -2.052318 -26.627686 3.225545 5.784190 0.561609 -4.429681 -6.159334 -0.748955 
-64.065880 52.497372 73.446274 -2.470703 -0.878906 -33.388821 35.602776 -13.517334 -1.491717 -9.716797 12.998048 9.677735 51.553619 8.070152 2.616707 -80.283203 -9.443358 -2.265625 2.000000 -2.000000 0.000000 -52.910156 21.103516 -4.273828 -49.580250 -1.560142 -1.978839 -17.531467 63.319725 -12.410738 -2.000000 2.000000 0.000000 50.253906 -25.576170 -7.265625 53.290428 1.217606 -2.311944 14.512961 -45.576927 -16.466406 -8.062162 6.948415 7.426095 1.197732 -5.569786 -0.373979 10.382789 9.857264 -7.240130 15.310346 -3.467344 -28.111523 9.250072 5.686279 1.215356 -3.456572 -6.398428 -5.437980 
-63.691021 52.639713 73.943695 -2.470703 -0.878906 -34.091942 35.711811 -13.635178 -2.041341 -9.677733 13.330079 9.631159 51.553619 8.070152 2.616707 -79.277344 -9.785155 -2.345410 2.000000 -2.000000 0.000000 -52.060547 19.462891 -0.182294 -49.049797 -1.680618 -1.863959 -16.452446 63.268234 -12.718092 -2.000000 2.000000 0.000000 50.332031 -26.650389 -7.207030 52.763081 1.217606 -2.311944 12.877133 -47.348228 -17.183954 -7.338400 7.132086 7.097965 3.306665 -5.749225 -0.597354 8.476355 11.038467 -7.423377 12.708476 -5.741308 -29.416204 16.783369 5.137728 1.945954 1.839244 -6.787052 -9.590523 
-64.442802 52.734600 75.327019 -2.128906 -0.878906 -34.775391 35.770416 -13.692977 -2.305328 -9.658203 13.496094 9.345703 51.553619 8.070152 2.616707 -78.564453 -9.902343 -2.294922 2.000000 -2.000000 0.000000 -50.927734 17.294924 2.832031 -49.225563 -1.690368 -1.863389 -16.135504 61.805588 -13.841410 -2.000000 2.000000 0.000000 50.273438 -27.275391 -7.509766 51.875179 1.178791 -1.981731 12.609571 -48.526161 -18.399321 -5.747360 7.141227 6.854041 4.006384 -5.755157 -0.708163 7.387345 11.912154 -8.215243 9.828679 -8.044624 -30.265511 22.939281 4.725668 2.333273 11.728651 -7.285594 -13.737344 
-65.203583 52.465736 76.769363 -1.767578 -0.878906 -35.488281 35.794998 -13.373866 -2.514553 -9.824219 13.671873 9.179688 51.553619 8.070152 2.616707 -79.277344 -9.785155 -1.642285 2.000000 -2.000000 0.000000 -50.263668 15.302735 3.557266 -50.099705 -1.709357 -1.686260 -16.128603 59.137390 -14.735522 -2.000000 2.000000 0.000000 50.214844 -27.343750 -8.354095 52.236275 1.218741 -2.331435 13.298404 -48.898067 -17.861488 -4.265394 7.319277 7.273896 4.192317 -5.766362 -0.744214 6.796420 12.582862 -8.431137 4.788607 -9.681976 -30.364975 29.788736 4.388887 2.750007 16.619169 -11.446799 -13.660647 
-66.073555 52.639713 78.284607 -0.908203 -1.064453 -36.552734 35.635269 -13.070696 -2.708983 -9.980469 14.033203 9.072267 51.553619 8.070152 2.616707 -80.107422 -9.472655 -0.712891 2.000000 -2.000000 0.000000 -49.414063 12.802734 3.693572 -51.347233 -1.598000 -1.956801 -15.928809 56.417023 -15.074441 -2.000000 2.000000 0.000000 50.351559 -26.572266 -9.628906 52.412056 1.218740 -2.331435 15.183898 -48.479992 -17.075636 -2.099205 7.681805 8.248035 4.016294 -5.736259 -0.708703 4.461770 12.460956 -8.674948 -0.733143 -11.336710 -30.659885 36.350685 4.457194 3.144480 20.423004 -17.424959 -7.041337 
-67.038895 52.861134 79.813194 0.000000 -1.240234 -37.451172 35.669807 -12.751552 -2.916182 -10.136718 14.199219 8.928177 51.553619 8.070152 2.616707 -81.308594 -9.091796 0.291425 2.000000 -2.000000 0.000000 -48.339844 10.576172 3.398438 -52.739758 -1.755763 -1.810670 -15.705964 53.188545 -15.859566 -2.000000 2.000000 0.000000 50.986328 -26.337889 -10.927734 52.226471 1.178223 -1.971784 16.441690 -47.887459 -17.345205 -0.224888 8.317881 9.412111 3.507917 -5.743080 -0.644632 2.557281 12.389665 -8.828794 -6.308918 -12.361115 -30.617767 40.911743 4.144974 3.675119 23.667255 -21.827539 1.126536 
-68.059990 53.027203 81.352486 0.703125 -1.582031 -38.369411 35.497169 -12.298010 -3.008329 -10.283202 14.560546 8.811049 51.553619 8.070152 2.616707 -81.982430 -8.808594 1.376953 2.000000 -2.000000 0.000000 -47.890621 8.505860 2.628399 -54.338440 -1.594507 -2.064842 -15.446085 50.057495 -16.246832 -2.000000 2.000000 0.000000 51.679688 -27.285158 -12.783203 52.763340 1.227922 -2.321123 15.731316 -47.815701 -16.608547 2.068947 8.601351 10.773913 2.640497 -5.764057 -0.568230 1.103343 12.341491 -8.542450 -9.824004 -12.468508 -29.703983 40.358555 4.189091 3.634490 25.871037 -23.563581 6.800399 
-69.185165 53.114189 82.921417 1.406250 -1.767578 -39.092098 35.511692 -11.850084 -3.115367 -10.429687 14.902344 8.527903 51.553619 8.070152 2.616707 -81.953125 -8.662109 2.166498 2.000000 -2.000000 0.000000 -47.207031 6.220703 2.647543 -55.601509 -1.132234 -2.189597 -15.231001 46.790791 -17.070877 -2.000000 2.000000 0.000000 52.626953 -28.056641 -14.833984 52.750462 1.358167 -2.205983 14.583005 -47.473209 -16.375021 4.725114 8.748986 12.190448 1.246719 -5.758947 -0.367070 -0.289180 11.721495 -8.659433 -9.901774 -10.895535 -27.998024 31.551908 4.751143 2.871054 26.093967 -21.678295 7.706859 
-70.362350 53.651936 84.520950 1.757813 -1.767578 -39.267578 35.340260 -11.383849 -3.213793 -10.761719 15.273438 8.381479 51.553619 8.070152 2.616707 -80.576172 -9.062499 3.076172 2.000000 -2.000000 0.000000 -46.660152 4.746094 2.071120 -56.655643 -1.150596 -2.168969 -15.076849 44.414318 -17.394806 -2.000000 2.000000 0.000000 53.828125 -29.140623 -16.855469 52.763329 1.237671 -2.320555 14.076275 -46.800522 -16.409887 7.946594 8.797499 13.088428 -0.530208 -5.559700 0.136355 -0.717196 11.283916 -8.702218 -7.791541 -8.383412 -25.683630 16.737173 5.409685 1.791799 24.842197 -17.954529 6.813085 
-71.703033 53.216991 86.140770 1.757813 -1.767578 -39.091797 35.161037 -10.930082 -3.308693 -10.927735 15.458985 8.212892 51.553619 8.070152 2.616707 -78.154297 -9.658202 3.631174 2.000000 -2.000000 0.000000 -46.728516 3.212891 3.134766 -57.371349 -1.019786 -2.274386 -14.617004 42.960766 -17.528976 -2.000000 2.000000 0.000000 54.531250 -29.667969 -18.061472 52.573494 1.248087 -2.163493 13.337913 -46.417553 -16.463383 11.574393 8.278633 14.158568 -3.722696 -5.354811 0.158460 -0.420621 10.772286 -8.036370 -5.096748 -5.885582 -23.112179 1.376046 5.534956 0.018714 22.754911 -13.906536 5.333379 
-73.213043 52.726696 87.770317 1.757813 -1.767578 -38.750000 35.022800 -10.623318 -3.513035 -11.093749 15.634766 8.215523 51.553619 8.070152 2.616707 -75.722656 -10.234373 3.984375 2.000000 -2.000000 0.000000 -47.197266 2.783203 3.681641 -57.724361 -1.159678 -2.324895 -14.947846 42.722176 -17.371777 -2.000000 2.000000 0.000000 54.433594 -30.878906 -17.617186 52.399174 1.348985 -2.216295 14.251667 -46.500584 -16.315308 15.936336 8.115641 14.562426 -6.967617 -5.372779 0.474525 -1.134444 10.247265 -7.888306 -4.088863 -4.260031 -20.889437 -7.934539 5.524016 -0.589825 19.593651 -10.975601 4.068985 
-74.373596 52.536911 88.947487 1.572266 -1.767578 -38.213196 35.039978 -10.162604 -3.626556 -11.445313 15.839844 7.998046 51.553619 8.070152 2.616707 -74.365234 -10.791014 4.228516 2.000000 -2.000000 0.000000 -47.548828 2.871094 4.013671 -57.724361 -1.159678 -2.324895 -14.311844 42.672428 -16.556549 -2.000000 2.000000 0.000000 53.935547 -32.138672 -16.304022 52.217182 1.218357 -1.989208 15.880058 -46.597263 -16.425470 16.027504 8.845705 14.163583 -3.713208 -5.395894 0.452576 -2.191793 10.950814 -5.350069 -5.906953 -3.924057 -19.248459 -8.634416 5.512421 -0.669364 18.048292 -10.022985 2.841235 
